Blade forms an uneasy alliance with the vampire council in order to combat the Reaper vampires who feed on vampires.

Director:
Guillermo del Toro
Writers:
Marv Wolfman (character), Gene Colan (character), and 1 more credit »
Stars:
Wesley Snipes, Kris Kristofferson and Ron Perlman 

Media info:

General
Complete name                    : E:\torrent2\Blade II 2002 Blu-Ray rip.MKV 1080p AVC DTS 5.1-ACB-Team\Blade II 2002 Blu-Ray rip.MKV 1080p AVC DTS 5.1-ACB-Team.mkv
Format                           : Matroska
File size                        : 11.4 GiB
Duration                         : 1h 56mn
Overall bit rate                 : 14.0 Mbps
Movie name                       : movie
Encoded date                     : UTC 2011-08-02 03:38:38
Writing application              : mkvmerge v3.2.0 ('Beginnings') built on Feb 12 2010 16:46:17
Writing library                  : libebml v0.7.9 + libmatroska v0.8.1

Video
ID                               : 1
Format                           : AVC
Format/Info                      : Advanced Video Codec
Format profile                   : High@L4.1
Format settings, CABAC           : Yes
Format settings, ReFrames        : 2 frames
Muxing mode                      : Container profile=Unknown@0.0
Codec ID                         : V_MPEG4/ISO/AVC
Duration                         : 1h 56mn
Bit rate mode                    : Variable
Bit rate                         : 12.8 Mbps
Maximum bit rate                 : 35.0 Mbps
Width                            : 1 920 pixels
Height                           : 1 080 pixels
Display aspect ratio             : 16:9
Frame rate                       : 23.976 fps
Color space                      : YUV
Chroma subsampling               : 4:2:0
Bit depth                        : 8 bits
Scan type                        : Progressive
Bits/(Pixel*Frame)               : 0.258
Stream size                      : 9.98 GiB (87%)
Writing library                  : x264 core 115 r2008 4c552d8
Encoding settings                : cabac=1 / ref=1 / deblock=1:0:0 / analyse=0x3:0x3 / me=dia / subme=1 / psy=1 / psy_rd=1.00:0.00 / mixed_ref=0 / me_range=16 / chroma_me=1 / trellis=0 / 8x8dct=1 / cqm=0 / deadzone=21,11 / fast_pskip=1 / chroma_qp_offset=0 / threads=3 / sliced_threads=0 / slices=4 / nr=0 / decimate=1 / interlaced=0 / bluray_compat=1 / constrained_intra=0 / bframes=3 / b_pyramid=0 / b_adapt=1 / b_bias=0 / direct=1 / weightb=1 / open_gop=0 / weightp=1 / keyint=24 / keyint_min=1 / scenecut=40 / intra_refresh=0 / rc_lookahead=0 / rc=abr / mbtree=0 / bitrate=12820 / ratetol=1.0 / qcomp=0.60 / qpmin=0 / qpmax=69 / qpstep=4 / vbv_maxrate=35000 / vbv_bufsize=30000 / nal_hrd=vbr / ip_ratio=1.10 / pb_ratio=1.10 / aq=1:1.00

Audio
ID                               : 2
Format                           : DTS
Format/Info                      : Digital Theater Systems
Codec ID                         : A_DTS
Duration                         : 1h 56mn
Bit rate mode                    : Constant
Bit rate                         : 1 510 Kbps
Channel(s)                       : 6 channels
Channel positions                : Front: L C R, Side: L R, LFE
Sampling rate                    : 48.0 KHz
Bit depth                        : 24 bits
Stream size                      : 1.23 GiB (11%)
Language                         : English

Text
ID                               : 3
Format                           : UTF-8
Codec ID                         : S_TEXT/UTF8
Codec ID/Info                    : UTF-8 Plain Text
Language                         : Dutch

Menu
00:00:00.000                     : en:00:00:00.000
00:04:57.963                     : en:00:04:57.963
00:12:42.677                     : en:00:12:42.677
00:16:59.934                     : en:00:16:59.934
00:23:12.182                     : en:00:23:12.182
00:28:36.381                     : en:00:28:36.381
00:36:23.181                     : en:00:36:23.181
00:39:33.704                     : en:00:39:33.704
00:47:46.864                     : en:00:47:46.864
00:57:21.478                     : en:00:57:21.478
01:05:49.235                     : en:01:05:49.235
01:12:31.387                     : en:01:12:31.387
01:22:00.081                     : en:01:22:00.081
01:29:42.167                     : en:01:29:42.167
01:38:02.083                     : en:01:38:02.083
01:49:13.963                     : en:01:49:13.963

